<mxfile host="app.diagrams.net" modified="2024-06-09T08:02:09.449Z" agent="Mozilla/5.0 (X11; Linux x86_64) AppleWebKit/537.36 (KHTML, like Gecko) Chrome/125.0.0.0 Safari/537.36" version="24.5.2" etag="2_CTC7CznvPKfFumUO4e" type="github">
  <diagram name="Страница — 1" id="Rjl7k9H7EMSpz9KUgi2v">
    <mxGraphModel>
      <root>
        <mxCell id="0" />
        <mxCell id="1" parent="0" />
      </root>
    </mxGraphModel>
  </diagram>
</mxfile>
